<?xml version="1.0" encoding="utf-8"?>
<!-- Generator: Adobe Illustrator 16.0.0, SVG Export Plug-In . SVG Version: 6.00 Build 0)  -->
<!DOCTYPE svg PUBLIC "-//W3C//DTD SVG 1.1//EN" "http://www.w3.org/Graphics/SVG/1.1/DTD/svg11.dtd">
<svg version="1.1" id="Layer_1" xmlns="http://www.w3.org/2000/svg" xmlns:xlink="http://www.w3.org/1999/xlink" x="0px" y="0px"
	 width="252.667px" height="50.195px" viewBox="0 0 252.667 50.195" enable-background="new 0 0 252.667 50.195"
	 xml:space="preserve">
<path id="Twitter" fill="#333333" d="M25,0.194c-13.808,0-25,11.192-25,25c0,13.807,11.192,25,25,25c13.807,0,25-11.193,25-25
	C50,11.387,38.807,0.194,25,0.194z M36.568,19.226c0.012,0.258,0.017,0.517,0.017,0.777c0,7.935-6.003,17.083-16.982,17.083
	c-3.371,0-6.508-0.994-9.15-2.698c0.467,0.055,0.942,0.084,1.424,0.084c2.796,0,5.371-0.96,7.414-2.57
	c-2.612-0.049-4.816-1.785-5.577-4.169c0.365,0.07,0.738,0.107,1.124,0.107c0.544,0,0.761-0.073,1.262-0.21
	C13.369,27.078,11,24.651,11,21.742c0-0.025,0-0.05,0-0.076c1,0.45,2.036,0.72,3.015,0.751c-1.602-1.077-2.5-2.915-2.5-4.998
	c0-1.101,0.373-2.132,0.886-3.019c2.944,3.632,7.381,6.022,12.342,6.273c-0.102-0.439-0.135-0.898-0.135-1.368
	c0-3.316,2.683-6.004,5.979-6.004c1.717,0,3.273,0.729,4.361,1.896c1.36-0.27,2.64-0.769,3.793-1.457
	c-0.446,1.402-1.391,2.578-2.623,3.322c1.207-0.146,2.358-0.468,3.429-0.945C38.746,17.321,37.734,18.379,36.568,19.226z"/>
<path id="Email" fill="#333333" d="M177.001,0C163.193,0,152,11.193,152,25c0,13.808,11.193,25,25.001,25
	C190.808,50,202,38.808,202,25C202,11.193,190.808,0,177.001,0z M166.134,15.194h21.727c0.388,0,0.764-0.441,1.109-0.284
	l-11.973,13.677l-11.973-13.531C165.369,14.898,165.745,15.194,166.134,15.194z M163,33.158V16.863c0-0.057,0.213-0.114,0.217-0.17
	l8.076,9.291l-8.05,7.876C163.181,33.634,163,33.398,163,33.158z M187.86,36.194h-21.727c-0.24,0-0.476-0.191-0.703-0.252
	l7.729-7.821l3.838,4.447l3.837-4.485l7.728,7.865C188.336,36.01,188.101,36.194,187.86,36.194z M191,33.158
	c0,0.24-0.244,0.476-0.305,0.702l-7.982-7.876l8.122-9.291c0.004,0.056,0.166,0.113,0.166,0.17V33.158z"/>
<g id="Github">
	<path fill="none" d="M126.489,10.453c-8.034,0-14.547,6.513-14.547,14.547s6.513,14.547,14.547,14.547S141.036,33.034,141.036,25
		S134.523,10.453,126.489,10.453z M138.699,25c0,1.65-0.331,3.25-0.967,4.755c-0.615,1.454-1.511,2.761-2.633,3.884
		c-1.123,1.123-2.46,2.004-3.915,2.619C130.815,36.414,131,36.552,130,36.67v-2.181c0-1.146-0.333-1.988-1.12-2.528
		c0.493-0.047,1.004-0.113,1.416-0.198c0.412-0.086,0.848-0.209,1.307-0.37c0.459-0.161,0.872-0.353,1.236-0.575
		c0.364-0.223,0.715-0.512,1.051-0.867c0.336-0.354,0.618-0.757,0.845-1.207c0.228-0.45,0.408-0.989,0.54-1.619
		s0.199-1.324,0.199-2.081c0-1.468-0.478-2.718-1.435-3.751c0.436-1.136,0.389-2.372-0.142-3.707l-0.355-0.043
		c-0.246-0.028-0.689,0.076-1.328,0.312c-0.639,0.237-1.356,0.625-2.152,1.165c-1.127-0.312-2.297-0.469-3.509-0.469
		c-1.222,0-2.387,0.156-3.495,0.469c-0.502-0.341-0.978-0.622-1.428-0.845s-0.81-0.374-1.08-0.455
		c-0.27-0.08-0.521-0.13-0.753-0.149c-0.232-0.019-0.381-0.023-0.447-0.014c-0.067,0.009-0.114,0.019-0.142,0.028
		c-0.531,1.345-0.578,2.581-0.142,3.707c-0.957,1.032-1.435,2.283-1.435,3.751c0,0.757,0.067,1.451,0.199,2.081
		c0.133,0.63,0.313,1.169,0.541,1.619s0.509,0.853,0.845,1.207c0.335,0.355,0.687,0.645,1.051,0.867
		c0.365,0.223,0.776,0.414,1.236,0.575s0.895,0.284,1.307,0.37c0.412,0.085,0.864,0.151,1.356,0.198
		c-0.776,0.53-1.165,1.374-1.165,2.528v2.223c-1-0.127-0.851-0.278-1.266-0.454c-1.455-0.615-2.761-1.496-3.884-2.619
		c-1.123-1.123-2.004-2.43-2.619-3.884c-0.636-1.505-0.959-3.104-0.959-4.755s0.323-3.25,0.959-4.755
		c0.616-1.454,1.497-2.761,2.62-3.884c1.123-1.123,2.43-2.004,3.884-2.619c1.505-0.637,3.104-0.96,4.755-0.96s3.25,0.323,4.755,0.96
		c1.455,0.615,2.759,1.496,3.882,2.619c1.123,1.123,2.002,2.43,2.618,3.884C138.38,21.75,138.699,23.35,138.699,25z"/>
	<path fill="#333333" d="M126.489,0c-13.807,0-25,11.192-25,25s11.193,25,25,25s25-11.192,25-25S140.296,0,126.489,0z
		 M126.489,39.547c-8.034,0-14.547-6.513-14.547-14.547s6.513-14.547,14.547-14.547S141.036,16.966,141.036,25
		S134.523,39.547,126.489,39.547z"/>
	<path fill="#333333" d="M131.244,13.742c-1.505-0.637-3.104-0.96-4.755-0.96s-3.25,0.323-4.755,0.96
		c-1.454,0.615-2.761,1.496-3.884,2.619c-1.123,1.123-2.004,2.43-2.62,3.884c-0.636,1.505-0.959,3.104-0.959,4.755
		s0.323,3.25,0.959,4.755c0.615,1.454,1.497,2.761,2.619,3.884c1.123,1.123,2.429,2.004,3.884,2.619
		c0.415,0.176,0.266,0.327,1.266,0.454v-2.223c0-1.154,0.389-1.998,1.165-2.528c-0.492-0.047-0.944-0.113-1.356-0.198
		c-0.412-0.086-0.847-0.209-1.307-0.37s-0.871-0.353-1.236-0.575c-0.364-0.223-0.715-0.512-1.051-0.867
		c-0.336-0.354-0.618-0.757-0.845-1.207s-0.408-0.989-0.541-1.619c-0.132-0.63-0.199-1.324-0.199-2.081
		c0-1.468,0.479-2.719,1.435-3.751c-0.436-1.126-0.389-2.362,0.142-3.707c0.028-0.01,0.075-0.02,0.142-0.028
		c0.066-0.01,0.215-0.005,0.447,0.014c0.232,0.02,0.483,0.069,0.753,0.149c0.27,0.081,0.63,0.232,1.08,0.455
		s0.926,0.504,1.428,0.845c1.108-0.312,2.273-0.469,3.495-0.469c1.212,0,2.382,0.156,3.509,0.469
		c0.795-0.54,1.513-0.928,2.152-1.165c0.639-0.236,1.082-0.341,1.328-0.312l0.355,0.043c0.53,1.335,0.577,2.571,0.142,3.707
		c0.957,1.033,1.435,2.283,1.435,3.751c0,0.757-0.066,1.451-0.199,2.081s-0.312,1.169-0.54,1.619
		c-0.227,0.45-0.509,0.853-0.845,1.207c-0.336,0.355-0.687,0.645-1.051,0.867c-0.365,0.223-0.777,0.414-1.236,0.575
		c-0.459,0.161-0.895,0.284-1.307,0.37c-0.412,0.085-0.923,0.151-1.416,0.198c0.786,0.54,1.12,1.383,1.12,2.528v2.181
		c1-0.118,0.815-0.256,1.184-0.412c1.455-0.615,2.792-1.496,3.915-2.619c1.122-1.123,2.018-2.43,2.633-3.884
		c0.637-1.505,0.967-3.104,0.967-4.755s-0.319-3.25-0.956-4.755c-0.616-1.454-1.495-2.761-2.618-3.884
		C134.003,15.238,132.699,14.357,131.244,13.742z"/>
</g>
<g id="Codepen">
	<path fill="none" d="M91.217,20.312c-0.003-0.02,0.221-0.038,0.218-0.058c-0.007-0.038-0.014-0.075-0.023-0.111
		c-0.005-0.022-0.014-0.043-0.021-0.064c-0.01-0.033-0.021-0.065-0.034-0.097c-0.009-0.021-0.02-0.044-0.029-0.065
		c-0.015-0.03-0.029-0.06-0.045-0.088c-0.012-0.021-0.025-0.042-0.038-0.062c-0.018-0.027-0.036-0.054-0.056-0.081
		c-0.015-0.019-0.03-0.039-0.046-0.057c-0.021-0.025-0.042-0.049-0.066-0.072c-0.018-0.018-0.034-0.035-0.052-0.052
		c-0.024-0.022-0.05-0.043-0.076-0.063c-0.02-0.016-0.04-0.031-0.06-0.045c-0.007-0.005-0.015-0.011-0.022-0.016L76.737,9.96
		c-0.447-0.298-1.027-0.298-1.474,0l-14.129,9.42c-0.007,0.004-0.014,0.011-0.021,0.016c-0.021,0.015-0.041,0.03-0.06,0.045
		c-0.026,0.021-0.051,0.042-0.075,0.063c-0.018,0.017-0.036,0.034-0.053,0.052c-0.023,0.023-0.044,0.047-0.066,0.072
		c-0.016,0.019-0.031,0.038-0.045,0.058c-0.019,0.026-0.037,0.053-0.054,0.081c-0.014,0.02-0.024,0.041-0.037,0.062
		c-0.017,0.028-0.027,0.058-0.042,0.087c-0.01,0.021-0.014,0.043-0.023,0.065c-0.013,0.032-0.009,0.064-0.02,0.097
		c-0.007,0.021,0.014,0.042,0.008,0.064c-0.01,0.036,0.042,0.074,0.035,0.111c-0.004,0.02,0.106,0.038,0.104,0.058
		C60.775,20.369,61,20.426,61,20.485v9.419c0,0.059-0.225,0.116-0.217,0.174c0.002,0.019-0.222,0.039-0.218,0.057
		c0.007,0.038,0.013,0.075,0.023,0.111c0.006,0.022,0.014,0.043,0.021,0.064c0.011,0.033,0.021,0.065,0.034,0.098
		c0.009,0.021,0.02,0.043,0.03,0.064c0.014,0.03,0.029,0.06,0.045,0.089c0.012,0.02,0.024,0.041,0.038,0.061
		c0.018,0.028,0.036,0.055,0.055,0.081c0.015,0.021,0.03,0.039,0.046,0.058c0.021,0.024,0.043,0.049,0.066,0.071
		c0.018,0.018,0.035,0.036,0.053,0.052c0.024,0.022,0.049,0.043,0.075,0.063c0.02,0.015,0.039,0.031,0.06,0.045
		c0.007,0.005,0.014,0.011,0.021,0.017l14.129,9.419c0.224,0.149,0.48,0.224,0.737,0.224c0.257,0,0.514-0.074,0.737-0.224
		l14.129-9.419c0.007-0.005,0.015-0.012,0.022-0.017c0.021-0.015,0.04-0.03,0.06-0.045c0.026-0.021,0.051-0.042,0.076-0.063
		c0.018-0.016,0.035-0.034,0.052-0.052c0.023-0.022,0.045-0.047,0.065-0.071c0.016-0.019,0.031-0.038,0.046-0.058
		c0.02-0.026,0.037-0.053,0.055-0.081c0.013-0.02,0.025-0.041,0.037-0.061c0.017-0.029,0.027-0.059,0.042-0.089
		c0.01-0.021,0.013-0.042,0.022-0.064c0.013-0.033,0.009-0.065,0.02-0.098c0.007-0.021-0.013-0.042-0.008-0.064
		c0.01-0.037-0.041-0.074-0.034-0.111c0.003-0.019-0.106-0.038-0.104-0.057C91.225,30.021,91,29.963,91,29.904v-9.419
		C91,20.426,91.225,20.369,91.217,20.312z M77,13.547l10.573,6.939l-4.731,3.11L77,19.744V13.547z M75,13.547v6.196l-5.841,3.853
		l-4.732-3.11L75,13.547z M63,22.971l3.324,2.224L63,27.417V22.971z M75,36.841l-10.573-6.939l4.732-3.109L75,30.645V36.841z
		 M76,28.337l-4.698-3.143L76,22.052l4.699,3.143L76,28.337z M77,36.841v-6.196l5.842-3.852l4.731,3.109L77,36.841z M89,27.417
		l-3.323-2.223L89,22.971V27.417z"/>
	<polygon fill="#333333" points="63,22.971 63,27.417 66.324,25.195 	"/>
	<polygon fill="#333333" points="75,19.744 75,13.547 64.427,20.486 69.159,23.597 	"/>
	<polygon fill="#333333" points="87.573,20.486 77,13.547 77,19.744 82.842,23.597 	"/>
	<polygon fill="#333333" points="64.427,29.902 75,36.841 75,30.645 69.159,26.793 	"/>
	<polygon fill="#333333" points="77,30.645 77,36.841 87.573,29.902 82.842,26.793 	"/>
	<polygon fill="#333333" points="76,22.052 71.301,25.195 76,28.337 80.698,25.195 	"/>
	<path fill="#333333" d="M76,0.194c-13.807,0-25,11.192-25,25s11.193,25,25,25c13.807,0,25-11.192,25-25S89.807,0.194,76,0.194z
		 M91.217,30.078c-0.003,0.019,0.107,0.039,0.104,0.057c-0.007,0.038,0.043,0.075,0.034,0.111c-0.005,0.022,0.015,0.043,0.008,0.064
		c-0.011,0.033-0.006,0.065-0.02,0.098c-0.009,0.021-0.013,0.043-0.022,0.064c-0.015,0.03-0.025,0.06-0.042,0.089
		c-0.012,0.02-0.024,0.041-0.037,0.061c-0.018,0.028-0.035,0.055-0.055,0.081c-0.015,0.021-0.03,0.039-0.046,0.058
		c-0.021,0.024-0.042,0.049-0.065,0.071c-0.018,0.018-0.034,0.036-0.052,0.052c-0.024,0.022-0.05,0.043-0.076,0.063
		c-0.02,0.015-0.04,0.031-0.06,0.045c-0.007,0.005-0.015,0.011-0.022,0.017l-14.129,9.419c-0.223,0.149-0.48,0.224-0.737,0.224
		c-0.256,0-0.513-0.074-0.737-0.224L61.133,31.01c-0.007-0.005-0.014-0.012-0.021-0.017c-0.021-0.015-0.041-0.03-0.06-0.045
		c-0.026-0.021-0.051-0.042-0.075-0.063c-0.018-0.016-0.036-0.034-0.053-0.052c-0.023-0.022-0.045-0.047-0.066-0.071
		c-0.016-0.019-0.031-0.038-0.046-0.058c-0.019-0.026-0.038-0.053-0.055-0.081c-0.014-0.02-0.026-0.041-0.038-0.061
		c-0.017-0.029-0.031-0.059-0.045-0.089c-0.01-0.021-0.021-0.042-0.03-0.064c-0.013-0.033-0.023-0.065-0.034-0.098
		c-0.007-0.021-0.014-0.042-0.021-0.064c-0.01-0.037-0.016-0.074-0.023-0.111c-0.003-0.019,0.221-0.038,0.218-0.057
		C60.775,30.021,61,29.963,61,29.904v-9.419c0-0.059-0.225-0.116-0.217-0.173c0.002-0.02-0.107-0.038-0.104-0.058
		c0.007-0.038-0.044-0.075-0.035-0.111c0.006-0.022-0.015-0.043-0.008-0.064c0.011-0.033,0.006-0.065,0.02-0.097
		c0.009-0.022,0.013-0.044,0.023-0.065c0.014-0.03,0.025-0.059,0.042-0.087c0.012-0.021,0.023-0.042,0.037-0.062
		c0.018-0.027,0.035-0.055,0.054-0.081c0.015-0.02,0.03-0.039,0.045-0.058c0.021-0.024,0.043-0.049,0.066-0.072
		c0.018-0.018,0.035-0.035,0.053-0.052c0.024-0.022,0.049-0.043,0.075-0.063c0.02-0.016,0.039-0.031,0.06-0.045
		c0.007-0.005,0.014-0.012,0.021-0.016l14.129-9.42c0.447-0.298,1.027-0.298,1.474,0l14.129,9.42
		c0.007,0.005,0.015,0.011,0.022,0.016c0.021,0.015,0.04,0.03,0.06,0.045c0.026,0.021,0.051,0.042,0.076,0.063
		c0.018,0.017,0.035,0.034,0.052,0.052c0.023,0.023,0.045,0.047,0.066,0.072c0.016,0.019,0.032,0.038,0.046,0.057
		c0.02,0.026,0.038,0.053,0.056,0.081c0.013,0.021,0.026,0.041,0.038,0.062c0.016,0.028,0.031,0.058,0.045,0.088
		c0.01,0.021,0.02,0.043,0.029,0.065c0.013,0.032,0.024,0.064,0.034,0.097c0.007,0.021,0.015,0.042,0.021,0.064
		c0.01,0.037,0.017,0.074,0.023,0.111c0.003,0.02-0.221,0.038-0.218,0.058C91.225,20.369,91,20.426,91,20.485v9.419
		C91,29.963,91.225,30.021,91.217,30.078z"/>
	<polygon fill="#333333" points="89,27.417 89,22.971 85.677,25.195 	"/>
</g>
<path id="About" fill="#333333" d="M227.667,0.194c-13.807,0-25,11.193-25,25c0,13.807,11.193,25,25,25c13.807,0,25-11.193,25-25
	C252.667,11.388,241.473,0.194,227.667,0.194z M229.872,36.952c-0.151,0.35-0.353,0.655-0.606,0.914
	c-0.253,0.259-0.543,0.464-0.869,0.615c-0.326,0.15-0.664,0.226-1.014,0.226c-0.362,0-0.703-0.076-1.022-0.226
	c-0.32-0.151-0.604-0.356-0.851-0.615c-0.248-0.259-0.441-0.564-0.58-0.914c-0.139-0.35-0.208-0.724-0.208-1.123
	c0-0.398,0.072-0.775,0.217-1.131c0.145-0.355,0.341-0.667,0.588-0.932c0.247-0.265,0.534-0.473,0.859-0.624
	c0.326-0.151,0.67-0.227,1.032-0.227c0.386,0,0.742,0.076,1.068,0.227c0.326,0.151,0.609,0.359,0.851,0.624
	c0.241,0.266,0.428,0.577,0.561,0.932c0.132,0.356,0.199,0.733,0.199,1.131C230.098,36.228,230.022,36.602,229.872,36.952z
	 M234.632,19.865c-0.38,0.736-0.856,1.421-1.43,2.055c-0.573,0.633-1.192,1.219-1.855,1.755c-0.664,0.538-1.282,1.041-1.855,1.512
	c-0.573,0.47-1.05,0.914-1.43,1.33c-0.38,0.417-0.57,0.824-0.57,1.222c0,0.314,0.118,0.574,0.353,0.778
	c0.235,0.206,0.606,0.308,1.113,0.308c0.169,0,0.347-0.009,0.534-0.027c0.187-0.018,0.389-0.057,0.606-0.118l0.579,1.9
	c-0.314,0.169-0.637,0.305-0.968,0.407c-0.332,0.103-0.658,0.185-0.978,0.245s-0.628,0.103-0.923,0.126
	c-0.295,0.024-0.558,0.036-0.787,0.036c-0.398,0-0.791-0.045-1.177-0.136c-0.386-0.09-0.73-0.238-1.031-0.443
	c-0.302-0.205-0.546-0.471-0.733-0.796s-0.28-0.724-0.28-1.194c0-0.302,0.039-0.591,0.118-0.869
	c0.078-0.277,0.229-0.585,0.452-0.923s0.531-0.727,0.923-1.167c0.392-0.44,0.902-0.968,1.529-1.584
	c0.435-0.434,0.833-0.861,1.195-1.283c0.362-0.421,0.672-0.87,0.932-1.346c0.259-0.476,0.464-0.991,0.615-1.545
	c0.151-0.554,0.227-1.187,0.227-1.897c0-0.578-0.049-1.114-0.145-1.608c-0.097-0.494-0.266-0.921-0.507-1.283
	s-0.564-0.645-0.968-0.85c-0.404-0.205-0.92-0.307-1.548-0.307c-0.302,0-0.597,0.036-0.887,0.108
	c-0.29,0.072-0.558,0.166-0.806,0.28s-0.467,0.241-0.661,0.379c-0.193,0.139-0.35,0.28-0.47,0.424
	c0.253,0.253,0.431,0.559,0.534,0.92c0.103,0.361,0.154,0.667,0.154,0.92c0,0.241-0.045,0.505-0.136,0.794
	c-0.09,0.289-0.232,0.559-0.425,0.812c-0.193,0.252-0.443,0.466-0.751,0.64s-0.673,0.262-1.095,0.262s-0.791-0.066-1.104-0.199
	c-0.314-0.132-0.573-0.317-0.778-0.552s-0.356-0.516-0.453-0.841c-0.097-0.326-0.145-0.676-0.145-1.05
	c0-0.664,0.196-1.321,0.588-1.973c0.392-0.651,0.932-1.24,1.62-1.765s1.502-0.95,2.443-1.276c0.941-0.326,1.967-0.489,3.077-0.489
	c1.46,0,2.694,0.169,3.702,0.507c1.007,0.338,1.819,0.784,2.434,1.339c0.616,0.555,1.059,1.186,1.331,1.891
	c0.271,0.706,0.407,1.427,0.407,2.163C235.202,18.326,235.012,19.129,234.632,19.865z"/>
</svg>
